<svg xmlns="http://www.w3.org/2000/svg" fill="none" viewBox="0 0 24 24">
  <path fill="#0f0"
    d="M8 8.5a1 1 0 0 0-2 0V9h-.5a1 1 0 1 0 0 2H6v.5a1 1 0 1 0 2 0V11h.5a1 1 0 1 0 0-2H8v-.5ZM18 8a1 1 0 1 1-2 0 1 1 0 0 1 2 0ZM17 13a1 1 0 1 0 0-2 1 1 0 0 0 0 2ZM16 10a1 1 0 1 1-2 0 1 1 0 0 1 2 0ZM19 11a1 1 0 1 0 0-2 1 1 0 0 0 0 2Z" />
  <path fill="#0f0" fill-rule="evenodd"
    d="M12 3c-1.812 0-4.038.258-5.782.51-2.275.327-4.127 2.007-4.608 4.278-.27 1.271-.533 2.774-.594 4.032a106.51 106.51 0 0 1-.239 3.372c-.105 1.258.314 2.554 1.084 3.476.785.94 2.028 1.575 3.463 1.173.918-.257 1.652-.902 2.197-1.538.556-.65.999-1.39 1.314-1.993.243-.463.674-.724 1.08-.724h4.17c.406 0 .837.26 1.08.724.315.602.758 1.343 1.315 1.993.544.636 1.278 1.281 2.196 1.538 1.435.402 2.678-.232 3.463-1.173.77-.922 1.189-2.218 1.084-3.476-.101-1.209-.196-2.47-.24-3.372-.06-1.258-.324-2.76-.593-4.032-.481-2.271-2.333-3.951-4.608-4.279C16.038 3.26 13.812 3 12 3ZM6.503 5.489C8.227 5.24 10.337 5 12 5c1.663 0 3.773.24 5.497.489 1.468.211 2.634 1.286 2.936 2.714.264 1.243.5 2.62.553 3.713.045.94.143 2.23.244 3.442.061.738-.196 1.513-.626 2.029-.415.497-.895.666-1.389.528-.365-.102-.782-.406-1.216-.913-.422-.493-.785-1.089-1.063-1.62-.532-1.015-1.588-1.796-2.851-1.796h-4.17c-1.263 0-2.32.78-2.851 1.796-.278.531-.641 1.127-1.063 1.62-.434.507-.85.81-1.216.913-.494.138-.974-.031-1.389-.528-.43-.516-.687-1.291-.626-2.029.101-1.212.199-2.502.244-3.442.053-1.094.29-2.47.553-3.713.302-1.428 1.468-2.503 2.936-2.714Z"
    clip-rule="evenodd" />
</svg>
