<svg xmlns="http://www.w3.org/2000/svg" xml:space="preserve" viewBox="0 0 512 512">
  <path fill="#14532d"
    d="M509.069 107.419 442.413 7.435A16.691 16.691 0 0 0 428.522 0H83.478a16.691 16.691 0 0 0-13.891 7.435L2.931 107.419A16.623 16.623 0 0 0 0 116.87v378.435C0 504.525 7.475 512 16.696 512h478.609c9.22 0 16.696-7.475 16.696-16.696V116.87a16.632 16.632 0 0 0-2.932-9.451zM306.087 33.391h113.5l44.522 66.783H306.087V33.391zm-66.783 0h33.391v133.565h-33.391V33.391zm-146.891 0h113.5v66.783H47.891l44.522-66.783zm386.196 445.218H33.391V133.565h172.522v50.087c0 9.22 7.475 16.696 16.696 16.696h66.783c9.22 0 16.696-7.475 16.696-16.696v-50.087H478.61v345.044z" />
  <path fill="#14532d"
    d="m439.216 283.152-33.392-33.391c-6.534-6.534-17.144-6.467-23.611 0l-33.391 33.391c-6.52 6.52-6.52 17.091 0 23.611 6.519 6.52 17.091 6.52 23.611 0l4.891-4.89v59.866c0 9.22 7.475 16.696 16.696 16.696s16.696-7.475 16.696-16.696v-59.867l4.891 4.891c6.519 6.52 17.091 6.521 23.611 0 6.518-6.521 6.518-17.091-.002-23.611zM305.651 283.152l-33.391-33.391c-6.534-6.534-17.152-6.461-23.611 0l-33.391 33.391c-6.52 6.52-6.52 17.091 0 23.611 6.518 6.52 17.09 6.52 23.61-.001l4.891-4.89v59.867c0 9.22 7.475 16.696 16.696 16.696 9.22 0 16.696-7.475 16.696-16.696v-59.867l4.891 4.891c6.519 6.52 17.091 6.521 23.611 0 6.518-6.521 6.518-17.091-.002-23.611zM428.517 411.826H228.169c-9.22 0-16.696 7.475-16.696 16.696s7.475 16.696 16.696 16.696h200.348c9.22 0 16.696-7.475 16.696-16.696s-7.475-16.696-16.696-16.696z" />
</svg>
