<svg xmlns="http://www.w3.org/2000/svg" viewBox="0 0 32 32">
  <path fill="#0f0"
    d="m27.393 2.664-3.646 2.218-.026 2.005-8.048 8.028-1.103-1.103a1 1 0 0 0-1.415 0 7.977 7.977 0 0 1-.751.662l.41.41-.013-.012c-1.988 1.987-3.27 2.562-3.27 2.562l-6.238 6.321a.999.999 0 0 0 0 1.414l3.536 3.536a.999.999 0 0 0 1.414 0l6.237-6.321s.574-1.28 2.564-3.271l.354.354.707-.707a.999.999 0 0 0 0-1.414l-1.072-1.072 8.018-8.057 2.047-.001 2.203-3.644-1.908-1.908zM3.979 24.402l6.348-6.348.707.706-6.348 6.349-.707-.707zm1.414 1.459 6.348-6.35.707.709L6.1 26.568l-.707-.707zm2.121 2.121-.707-.707 6.348-6.349.708.707-6.349 6.349z" />
</svg>
